<svg width="200" height="46" viewBox="0 0 200 46" fill="none" xmlns="http://www.w3.org/2000/svg">
    <path d="M7.54824 6.311C7.54824 6.311 8.52874 9.545 7.54824 12.3456C7.10936 13.6004 6.29216 15.6895 5.5328 18.7505C7.81973 17.1091 9.64873 16.1785 11.656 14.2176C11.9084 12.5715 12.5746 7.77607 10.2768 4.08221C8.55119 1.3074 7.72787 0.386981 6.75281 0.0681937C6.07374 -0.154279 5.33547 0.184856 5.02451 0.826501L4.8163 1.25449C4.8163 1.25449 0.579928 1.15818 0.0260558 1.68926C-0.0202136 1.73335 -0.00184156 1.81203 0.0573561 1.83848C0.651374 2.1064 3.99706 3.61216 4.49446 3.80954C4.49446 3.80954 5.80361 6.36527 7.54824 6.311Z" fill="#002C72"/>
    <path d="M39.3212 6.64615C39.3212 6.64615 33.5233 4.81142 27.2762 6.42435C21.0292 8.03728 19.8704 9.52473 17.8101 12.1157C15.0781 15.5512 14.5263 19.3705 13.8785 20.9706C13.3104 22.3759 12.2482 25.2844 11.0214 26.5344C9.79456 27.7845 17.2045 36.7071 17.2045 36.7071C17.2045 36.7071 21.6518 33.4453 25.1193 31.7463C28.5874 30.0472 32.3203 23.8315 33.2416 20.7142C34.1636 17.5968 34.233 14.9387 36.0041 11.8166C37.776 8.69521 39.3212 6.64615 39.3212 6.64615Z" fill="#002C72"/>
    <path d="M25.5818 41.6044C22.9438 40.5978 19.0476 38.7861 17.812 36.5004C15.8836 32.9347 11.9133 26.7882 11.9133 26.7882C11.9133 26.7882 10.8021 18.8131 11.6561 14.2178L8.56488 12.4407C8.56488 12.4407 6.43853 14.9598 5.03752 19.4208C3.95291 22.8739 3.31806 24.7615 2.94042 26.5081C2.5621 28.2539 2.23141 33.7303 4.25774 36.516C7.09378 40.4153 8.35258 40.6243 10.6599 42.3783C14.5568 42.5065 18.4679 42.811 22.3736 42.9134C23.431 42.4474 24.504 42.0201 25.5818 41.6044Z" fill="#002C72"/>
    <path d="M5.68506 38.3613C6.3512 39.0253 11.6143 44.8917 20.7893 45.9667C24.1969 46.3655 28.0162 43.0902 29.7928 40.5453C29.7928 40.5453 22.9544 37.7793 22.0107 35.7316C21.0669 33.6846 22.9544 32.6889 22.9544 32.6889" fill="#002C72"/>
    <path d="M47.2138 20.7459C47.2138 20.9804 47.2373 21.1727 47.2843 21.3228C47.3314 21.4729 47.4161 21.5948 47.5384 21.6886C47.6702 21.7824 47.8442 21.8528 48.0607 21.8997C48.2865 21.9466 48.5735 21.9794 48.9217 21.9982V22.1108C48.5829 22.1108 48.263 22.1061 47.9619 22.0967C47.7078 22.0967 47.4537 22.0967 47.1996 22.0967C46.9456 22.0873 46.7574 22.0826 46.635 22.0826C46.5127 22.0826 46.348 22.0873 46.141 22.0967C45.934 22.0967 45.7269 22.0967 45.5199 22.0967C45.2753 22.1061 45.0212 22.1108 44.7577 22.1108V21.9982C45.04 21.9794 45.2658 21.9466 45.4352 21.8997C45.6046 21.8528 45.7316 21.7824 45.8163 21.6886C45.9104 21.5948 45.9716 21.4729 45.9998 21.3228C46.0375 21.1727 46.0563 20.9804 46.0563 20.7459V14.8645C46.0563 14.6299 46.0375 14.4376 45.9998 14.2876C45.9716 14.1375 45.9104 14.0155 45.8163 13.9217C45.7316 13.8279 45.6046 13.7623 45.4352 13.7247C45.2658 13.6778 45.04 13.645 44.7577 13.6262V13.4996C45.0212 13.509 45.2753 13.5137 45.5199 13.5137C45.7269 13.5231 45.934 13.5278 46.141 13.5278C46.348 13.5278 46.5127 13.5278 46.635 13.5278C46.8232 13.5278 47.0397 13.5278 47.2843 13.5278C47.5384 13.5184 47.8019 13.5137 48.0748 13.5137C48.3571 13.5043 48.6394 13.4996 48.9217 13.4996C49.2134 13.4996 49.491 13.4996 49.7545 13.4996C49.8392 13.4996 49.938 13.4996 50.0509 13.4996C50.1733 13.4902 50.3003 13.4855 50.432 13.4855C50.5638 13.4762 50.6908 13.4668 50.8132 13.4574C50.9449 13.448 51.0578 13.4386 51.1519 13.4293C51.1425 13.5793 51.1331 13.7388 51.1237 13.9077C51.1237 14.0765 51.1237 14.2454 51.1237 14.4142C51.1237 14.6299 51.1237 14.8551 51.1237 15.0896C51.1331 15.3147 51.1425 15.5164 51.1519 15.6946H51.039C50.9261 15.3851 50.8132 15.1177 50.7002 14.8926C50.5873 14.6581 50.4179 14.4658 50.1921 14.3157C49.9662 14.1562 49.6604 14.039 49.2746 13.9639C48.8888 13.8889 48.3618 13.8514 47.6937 13.8514H47.2138V20.7459Z" fill="#333333"/>
    <path d="M54.8222 22.2233C54.5493 22.2233 54.3564 22.1389 54.2435 21.97C54.1306 21.7918 54.0741 21.5855 54.0741 21.3509C54.0741 21.1727 54.1024 20.9992 54.1588 20.8303H54.2717C54.3376 20.8772 54.427 20.9148 54.5399 20.9429C54.6529 20.971 54.8175 20.9851 55.034 20.9851C55.1939 20.9851 55.3727 20.9054 55.5704 20.7459C55.768 20.5865 55.9609 20.3426 56.1491 20.0143L53.4672 14.9348C53.2225 14.4752 52.992 14.1515 52.7755 13.9639C52.5591 13.767 52.3097 13.6685 52.0274 13.6685V13.5418C52.2533 13.5512 52.4697 13.5559 52.6767 13.5559C52.8555 13.5653 53.0343 13.57 53.2131 13.57C53.4013 13.57 53.5472 13.57 53.6507 13.57C53.7259 13.57 53.8483 13.57 54.0177 13.57C54.1871 13.57 54.3517 13.5653 54.5117 13.5559C54.6999 13.5559 54.9069 13.5512 55.1328 13.5418V13.6685C54.8505 13.6685 54.6434 13.6966 54.5117 13.7529C54.3894 13.8092 54.3282 13.903 54.3282 14.0343C54.3282 14.1562 54.3753 14.3298 54.4694 14.5549C54.5729 14.78 54.7375 15.1037 54.9634 15.5258L56.6996 18.8183L58.1111 15.568C58.2146 15.3335 58.3087 15.113 58.3934 14.9067C58.4875 14.6909 58.5346 14.5033 58.5346 14.3438C58.5346 14.1281 58.4405 13.9593 58.2523 13.8373C58.0735 13.706 57.7723 13.6356 57.3489 13.6262V13.4996C57.5559 13.509 57.7535 13.5137 57.9417 13.5137C58.1017 13.5231 58.2664 13.5278 58.4358 13.5278C58.6146 13.5278 58.7604 13.5278 58.8733 13.5278C58.9957 13.5278 59.1368 13.5278 59.2968 13.5278C59.4568 13.5278 59.612 13.5231 59.7626 13.5137C59.932 13.5137 60.1061 13.509 60.2849 13.4996V13.6262C59.9837 13.7013 59.6967 13.8326 59.4238 14.0202C59.1603 14.1984 58.9251 14.5268 58.7181 15.0052L56.6431 19.9439C56.4737 20.3566 56.3185 20.7084 56.1773 20.9992C56.0456 21.2806 55.9138 21.5151 55.7821 21.7027C55.6503 21.8809 55.5092 22.0123 55.3586 22.0967C55.2081 22.1811 55.0293 22.2233 54.8222 22.2233Z" fill="#333333"/>
    <path d="M68.8094 21.8856C68.6588 21.8856 68.4753 21.9044 68.2589 21.9419C68.0425 21.9794 67.8119 22.0216 67.5673 22.0685C67.3226 22.1061 67.0732 22.1436 66.8192 22.1811C66.5651 22.2186 66.3298 22.2374 66.1134 22.2374C65.417 22.2374 64.7771 22.1436 64.1937 21.956C63.6103 21.759 63.1115 21.4776 62.6975 21.1117C62.2834 20.7459 61.9588 20.3004 61.7235 19.7751C61.4977 19.2404 61.3848 18.6353 61.3848 17.96C61.3848 17.3033 61.5024 16.6983 61.7376 16.1449C61.9729 15.582 62.3023 15.099 62.7257 14.6956C63.1586 14.2829 63.6714 13.9639 64.2643 13.7388C64.8571 13.5043 65.5158 13.3871 66.2404 13.3871C66.4569 13.3871 66.6827 13.4058 66.918 13.4433C67.1626 13.4715 67.3979 13.5043 67.6237 13.5418C67.859 13.5793 68.0754 13.6169 68.273 13.6544C68.4801 13.6825 68.6588 13.6966 68.8094 13.6966H68.9506C68.9412 13.8561 68.9365 14.0202 68.9365 14.1891C68.9365 14.3579 68.9365 14.5268 68.9365 14.6956C68.9365 14.8645 68.9365 15.0755 68.9365 15.3288C68.9365 15.5727 68.9412 15.7743 68.9506 15.9338H68.8235C68.7294 15.6336 68.6212 15.3475 68.4989 15.0755C68.3765 14.8035 68.2166 14.5643 68.019 14.3579C67.8308 14.1515 67.5861 13.9874 67.285 13.8654C66.9932 13.7435 66.6309 13.6825 66.1981 13.6825C65.7182 13.6825 65.2665 13.767 64.843 13.9358C64.4195 14.0953 64.0478 14.3438 63.7279 14.6815C63.408 15.0192 63.1539 15.4413 62.9657 15.9479C62.7775 16.4544 62.6834 17.0454 62.6834 17.7208C62.6834 18.4899 62.7869 19.1419 62.9939 19.6766C63.2103 20.2112 63.4785 20.6474 63.7985 20.9851C64.1278 21.3134 64.4901 21.5526 64.8854 21.7027C65.2806 21.8528 65.6617 21.9278 66.0287 21.9278C66.5086 21.9278 66.9038 21.8669 67.2144 21.7449C67.5343 21.623 67.7978 21.4588 68.0048 21.2525C68.2213 21.0367 68.3954 20.7881 68.5271 20.5067C68.6683 20.2253 68.8047 19.9251 68.9365 19.6062H69.0494C69.0023 19.9908 68.96 20.3707 68.9223 20.7459C68.8847 21.1211 68.8471 21.501 68.8094 21.8856Z" fill="#333333"/>
    <path d="M73.3536 17.5378H74.1158C74.511 17.5378 74.8404 17.505 75.1038 17.4394C75.3673 17.3643 75.5791 17.2658 75.739 17.1439C75.9084 17.0125 76.0308 16.8625 76.106 16.6936C76.1813 16.5248 76.2284 16.3372 76.2472 16.1308H76.3601C76.3507 16.3465 76.3413 16.5482 76.3319 16.7358C76.3225 16.8953 76.3178 17.0594 76.3178 17.2283C76.3178 17.3971 76.3178 17.5285 76.3178 17.6223C76.3178 17.7255 76.3178 17.8615 76.3178 18.0303C76.3178 18.1992 76.3225 18.3727 76.3319 18.5509C76.3413 18.7573 76.3507 18.973 76.3601 19.1982H76.2472C76.2284 18.9355 76.1813 18.7198 76.106 18.5509C76.0308 18.3727 75.9178 18.232 75.7673 18.1288C75.6167 18.0256 75.4191 17.9553 75.1744 17.9177C74.9392 17.8708 74.6475 17.8474 74.2993 17.8474H73.3536V19.8313C73.3536 20.2534 73.3818 20.5958 73.4382 20.8585C73.4947 21.1211 73.5982 21.3228 73.7488 21.4635C73.9088 21.6042 74.1252 21.698 74.3981 21.7449C74.671 21.7918 75.0286 21.8153 75.4708 21.8153C75.8002 21.8153 76.0919 21.7871 76.346 21.7309C76.6095 21.6652 76.84 21.5573 77.0377 21.4072C77.2353 21.2571 77.4046 21.0648 77.5458 20.8303C77.6964 20.5865 77.8281 20.2816 77.941 19.9158H78.054C77.9975 20.3004 77.9504 20.6803 77.9128 21.0555C77.8752 21.4307 77.8422 21.8106 77.814 22.1952C77.7199 22.1858 77.607 22.1764 77.4752 22.167C77.3529 22.1577 77.2259 22.1483 77.0941 22.1389C76.9624 22.1389 76.8353 22.1342 76.713 22.1248C76.6001 22.1248 76.5013 22.1248 76.4166 22.1248L72.7748 22.0826C72.6525 22.0826 72.4878 22.0873 72.2808 22.0967C72.0738 22.0967 71.8667 22.0967 71.6597 22.0967C71.415 22.1061 71.161 22.1108 70.8975 22.1108V21.9982C71.1798 21.9794 71.4056 21.9466 71.575 21.8997C71.7444 21.8528 71.8714 21.7824 71.9561 21.6886C72.0502 21.5948 72.1114 21.4729 72.1396 21.3228C72.1773 21.1727 72.1961 20.9804 72.1961 20.7459V14.8645C72.1961 14.6299 72.1773 14.4376 72.1396 14.2876C72.1114 14.1375 72.0502 14.0155 71.9561 13.9217C71.8714 13.8279 71.7444 13.7623 71.575 13.7247C71.4056 13.6778 71.1798 13.645 70.8975 13.6262V13.4996C71.161 13.509 71.415 13.5137 71.6597 13.5137C71.8667 13.5231 72.0738 13.5278 72.2808 13.5278C72.4878 13.5278 72.6525 13.5278 72.7748 13.5278C72.963 13.5278 73.1983 13.5278 73.4806 13.5278C73.7629 13.5184 74.0593 13.5137 74.3699 13.5137C74.6804 13.5043 74.9909 13.4996 75.3015 13.4996C75.6214 13.4996 75.9131 13.4996 76.1766 13.4996C76.2613 13.4996 76.3601 13.4996 76.473 13.4996C76.5954 13.4902 76.7224 13.4855 76.8541 13.4855C76.9859 13.4762 77.1129 13.4668 77.2353 13.4574C77.367 13.448 77.4799 13.4386 77.574 13.4293C77.5646 13.5793 77.5552 13.7388 77.5458 13.9077C77.5458 14.0765 77.5458 14.2454 77.5458 14.4142C77.5458 14.6299 77.5458 14.8551 77.5458 15.0896C77.5552 15.3147 77.5646 15.5164 77.574 15.6946H77.4611C77.3576 15.3851 77.2541 15.113 77.1506 14.8785C77.0565 14.644 76.8965 14.447 76.6706 14.2876C76.4542 14.1187 76.1437 13.9968 75.739 13.9217C75.3438 13.8373 74.8027 13.7951 74.1158 13.7951H73.3536V17.5378Z" fill="#333333"/>
    <path d="M81.6867 22.0826C81.5643 22.0826 81.3949 22.0873 81.1785 22.0967C80.9715 22.0967 80.7598 22.0967 80.5433 22.0967C80.2987 22.1061 80.0399 22.1108 79.767 22.1108V21.9982C80.0493 21.9794 80.2751 21.9466 80.4445 21.8997C80.6139 21.8528 80.7409 21.7824 80.8256 21.6886C80.9197 21.5948 80.9809 21.4729 81.0091 21.3228C81.0468 21.1727 81.0656 20.9804 81.0656 20.7459V14.8645C81.0656 14.6299 81.0468 14.4376 81.0091 14.2876C80.9809 14.1375 80.9197 14.0155 80.8256 13.9217C80.7409 13.8279 80.6139 13.7623 80.4445 13.7247C80.2751 13.6778 80.0493 13.645 79.767 13.6262V13.4996C80.0305 13.509 80.2845 13.5137 80.5292 13.5137C80.7362 13.5231 80.9433 13.5278 81.1503 13.5278C81.3573 13.5278 81.522 13.5278 81.6443 13.5278C81.9737 13.5184 82.2983 13.5137 82.6183 13.5137C82.9476 13.5043 83.277 13.4996 83.6063 13.4996C83.9922 13.4996 84.3545 13.5371 84.6932 13.6122C85.0414 13.6872 85.3425 13.8045 85.5966 13.9639C85.8507 14.1234 86.053 14.3298 86.2036 14.583C86.3541 14.8269 86.4294 15.1177 86.4294 15.4554C86.4294 15.765 86.3588 16.0417 86.2177 16.2856C86.0859 16.5201 85.926 16.7218 85.7378 16.8906C85.559 17.0501 85.3755 17.1767 85.1873 17.2705C84.9991 17.3643 84.8485 17.43 84.7356 17.4675C84.8767 17.4863 85.0837 17.5332 85.3566 17.6082C85.6295 17.6832 85.8977 17.8052 86.1612 17.974C86.4247 18.1429 86.6553 18.3633 86.8529 18.6353C87.0505 18.9074 87.1493 19.2498 87.1493 19.6625C87.1493 20.0565 87.0646 20.4035 86.8952 20.7037C86.7258 21.0039 86.4859 21.2618 86.1753 21.4776C85.8742 21.6839 85.5072 21.8434 85.0743 21.956C84.6415 22.0592 84.1568 22.1108 83.6205 22.1108C83.5169 22.1108 83.3805 22.1108 83.2111 22.1108C83.0417 22.1014 82.8629 22.0967 82.6747 22.0967C82.4959 22.0967 82.3171 22.0967 82.1383 22.0967C81.9596 22.0873 81.809 22.0826 81.6867 22.0826ZM82.223 20.2957C82.223 20.5583 82.2419 20.7881 82.2795 20.9851C82.3266 21.1821 82.4018 21.3463 82.5053 21.4776C82.6183 21.5995 82.7688 21.6933 82.957 21.759C83.1452 21.8153 83.3899 21.8434 83.691 21.8434C83.9733 21.8434 84.2415 21.8106 84.4956 21.7449C84.7591 21.6793 84.9896 21.5667 85.1873 21.4072C85.3943 21.2478 85.5543 21.0414 85.6672 20.7881C85.7895 20.5349 85.8507 20.2159 85.8507 19.8313C85.8507 19.5781 85.7989 19.3295 85.6954 19.0856C85.6013 18.8323 85.4507 18.6072 85.2437 18.4102C85.0367 18.2132 84.7732 18.0585 84.4533 17.9459C84.1427 17.8239 83.771 17.763 83.3382 17.763H82.83C82.7359 17.763 82.6183 17.7677 82.4771 17.777C82.336 17.777 82.2513 17.7817 82.223 17.7911V20.2957ZM83.2958 17.5238C83.5405 17.5238 83.7757 17.4863 84.0016 17.4112C84.2274 17.3268 84.425 17.2095 84.5944 17.0594C84.7732 16.9094 84.9144 16.7218 85.0179 16.4966C85.1214 16.2715 85.1731 16.0089 85.1731 15.7087C85.1731 15.0239 84.9991 14.5315 84.6509 14.2313C84.3027 13.9217 83.8322 13.767 83.2393 13.767C83.07 13.767 82.9194 13.7716 82.7877 13.781C82.6653 13.7904 82.5618 13.7998 82.4771 13.8092C82.3736 13.8185 82.2936 13.8279 82.2372 13.8373V14.6534L82.223 17.4956C82.2513 17.505 82.336 17.5144 82.4771 17.5238C82.6277 17.5238 82.75 17.5238 82.8441 17.5238H83.2958Z" fill="#333333"/>
    <path d="M96.5344 21.8856C96.3839 21.8856 96.2004 21.9044 95.9839 21.9419C95.7675 21.9794 95.5369 22.0216 95.2923 22.0685C95.0476 22.1061 94.7982 22.1436 94.5442 22.1811C94.2901 22.2186 94.0548 22.2374 93.8384 22.2374C93.142 22.2374 92.5022 22.1436 91.9187 21.956C91.3353 21.759 90.8365 21.4776 90.4225 21.1117C90.0084 20.7459 89.6838 20.3004 89.4485 19.7751C89.2227 19.2404 89.1098 18.6353 89.1098 17.96C89.1098 17.3033 89.2274 16.6983 89.4627 16.1449C89.6979 15.582 90.0273 15.099 90.4507 14.6956C90.8836 14.2829 91.3965 13.9639 91.9893 13.7388C92.5821 13.5043 93.2409 13.3871 93.9654 13.3871C94.1819 13.3871 94.4077 13.4058 94.643 13.4433C94.8876 13.4715 95.1229 13.5043 95.3487 13.5418C95.584 13.5793 95.8004 13.6169 95.998 13.6544C96.2051 13.6825 96.3839 13.6966 96.5344 13.6966H96.6756C96.6662 13.8561 96.6615 14.0202 96.6615 14.1891C96.6615 14.3579 96.6615 14.5268 96.6615 14.6956C96.6615 14.8645 96.6615 15.0755 96.6615 15.3288C96.6615 15.5727 96.6662 15.7743 96.6756 15.9338H96.5485C96.4544 15.6336 96.3462 15.3475 96.2239 15.0755C96.1016 14.8035 95.9416 14.5643 95.744 14.3579C95.5558 14.1515 95.3111 13.9874 95.01 13.8654C94.7183 13.7435 94.356 13.6825 93.9231 13.6825C93.4432 13.6825 92.9915 13.767 92.568 13.9358C92.1446 14.0953 91.7729 14.3438 91.4529 14.6815C91.133 15.0192 90.8789 15.4413 90.6907 15.9479C90.5025 16.4544 90.4084 17.0454 90.4084 17.7208C90.4084 18.4899 90.5119 19.1419 90.7189 19.6766C90.9354 20.2112 91.2035 20.6474 91.5235 20.9851C91.8528 21.3134 92.2151 21.5526 92.6104 21.7027C93.0056 21.8528 93.3867 21.9278 93.7537 21.9278C94.2336 21.9278 94.6289 21.8669 94.9394 21.7449C95.2593 21.623 95.5228 21.4588 95.7299 21.2525C95.9463 21.0367 96.1204 20.7881 96.2521 20.5067C96.3933 20.2253 96.5297 19.9251 96.6615 19.6062H96.7744C96.7273 19.9908 96.685 20.3707 96.6473 20.7459C96.6097 21.1211 96.5721 21.501 96.5344 21.8856Z" fill="#333333"/>
    <path d="M101.079 20.7459C101.079 20.9804 101.093 21.1774 101.121 21.3369C101.149 21.487 101.206 21.6089 101.29 21.7027C101.375 21.7965 101.493 21.8669 101.643 21.9138C101.803 21.9607 102.005 21.9888 102.25 21.9982V22.1108C102.005 22.1108 101.77 22.1061 101.544 22.0967C101.356 22.0967 101.159 22.0967 100.952 22.0967C100.754 22.0873 100.603 22.0826 100.5 22.0826C100.378 22.0826 100.213 22.0873 100.006 22.0967C99.7988 22.0967 99.5917 22.0967 99.3847 22.0967C99.1401 22.1061 98.886 22.1108 98.6225 22.1108V21.9982C98.9048 21.9794 99.1307 21.9466 99.3 21.8997C99.4694 21.8528 99.5965 21.7824 99.6811 21.6886C99.7753 21.5948 99.8364 21.4729 99.8646 21.3228C99.9023 21.1727 99.9211 20.9804 99.9211 20.7459V14.8645C99.9211 14.6299 99.9023 14.4376 99.8646 14.2876C99.8364 14.1375 99.7753 14.0155 99.6811 13.9217C99.5965 13.8279 99.4694 13.7623 99.3 13.7247C99.1307 13.6778 98.9048 13.645 98.6225 13.6262V13.4996C98.886 13.509 99.1401 13.5137 99.3847 13.5137C99.5917 13.5231 99.7988 13.5278 100.006 13.5278C100.213 13.5278 100.378 13.5278 100.5 13.5278C100.622 13.5278 100.787 13.5278 100.994 13.5278C101.21 13.5278 101.422 13.5231 101.629 13.5137C101.874 13.5137 102.128 13.509 102.391 13.4996V13.6262C102.118 13.645 101.893 13.6778 101.714 13.7247C101.544 13.7623 101.413 13.8279 101.319 13.9217C101.224 14.0155 101.159 14.1375 101.121 14.2876C101.093 14.4376 101.079 14.6299 101.079 14.8645V20.7459ZM107.162 21.7731C107.068 21.8762 106.96 21.97 106.838 22.0545C106.734 22.1295 106.602 22.1905 106.442 22.2374C106.292 22.2937 106.118 22.3218 105.92 22.3218C105.666 22.3218 105.431 22.2655 105.214 22.153C104.998 22.0404 104.791 21.895 104.593 21.7168C104.405 21.5292 104.222 21.3181 104.043 21.0836C103.873 20.8397 103.704 20.5865 103.535 20.3238C103.375 20.0612 103.215 19.7985 103.055 19.5359C102.895 19.2732 102.73 19.0293 102.561 18.8042C102.401 18.5697 102.231 18.3633 102.053 18.1851C101.883 18.0069 101.7 17.8755 101.502 17.7911V17.7067C101.925 17.6035 102.26 17.4065 102.504 17.1157C102.749 16.8156 102.989 16.3841 103.224 15.8212C103.384 15.4367 103.53 15.0943 103.662 14.7941C103.803 14.4939 103.944 14.2407 104.085 14.0343C104.226 13.8185 104.377 13.6591 104.537 13.5559C104.697 13.4433 104.876 13.3871 105.073 13.3871C105.327 13.3871 105.515 13.4621 105.638 13.6122C105.77 13.7623 105.845 13.9311 105.864 14.1187C105.882 14.2782 105.859 14.433 105.793 14.583C105.737 14.7237 105.647 14.8363 105.525 14.9207H105.384C105.261 14.8082 105.148 14.7284 105.045 14.6815C104.951 14.6253 104.838 14.5971 104.706 14.5971C104.556 14.5971 104.419 14.6346 104.297 14.7097C104.184 14.7847 104.08 14.8879 103.986 15.0192C103.892 15.1412 103.808 15.2819 103.732 15.4413C103.657 15.6008 103.582 15.765 103.506 15.9338C103.337 16.3278 103.172 16.6561 103.012 16.9187C102.862 17.1814 102.678 17.3925 102.462 17.5519C102.678 17.6082 102.885 17.7161 103.083 17.8755C103.29 18.0256 103.483 18.2085 103.662 18.4243C103.85 18.6307 104.029 18.8558 104.198 19.0997C104.367 19.3436 104.537 19.5921 104.706 19.8454C104.876 20.0893 105.04 20.3285 105.2 20.563C105.37 20.7881 105.534 20.9898 105.694 21.168C105.864 21.3463 106.033 21.4917 106.202 21.6042C106.372 21.7074 106.546 21.759 106.725 21.759C106.875 21.759 106.988 21.7449 107.063 21.7168C107.101 21.698 107.134 21.6793 107.162 21.6605V21.7731Z" fill="#333333"/>
    <path d="M112.346 21.9278C112.751 21.9278 113.136 21.8481 113.503 21.6886C113.88 21.5198 114.205 21.2665 114.477 20.9288C114.76 20.5818 114.981 20.1503 115.141 19.6343C115.31 19.1091 115.395 18.4946 115.395 17.7911C115.395 17.1345 115.306 16.5529 115.127 16.0464C114.957 15.5398 114.722 15.113 114.421 14.766C114.129 14.4095 113.786 14.1422 113.391 13.9639C112.995 13.7763 112.572 13.6825 112.12 13.6825C111.725 13.6825 111.344 13.7623 110.977 13.9217C110.61 14.0812 110.28 14.3298 109.989 14.6675C109.706 14.9958 109.481 15.4179 109.311 15.9338C109.142 16.4497 109.057 17.0594 109.057 17.763C109.057 18.4196 109.142 19.0059 109.311 19.5218C109.481 20.0377 109.711 20.4739 110.003 20.8303C110.295 21.1868 110.638 21.4588 111.033 21.6464C111.438 21.834 111.875 21.9278 112.346 21.9278ZM112.177 22.2374C111.668 22.2374 111.151 22.1623 110.624 22.0123C110.106 21.8528 109.636 21.6089 109.212 21.2806C108.789 20.9429 108.441 20.5067 108.168 19.972C107.895 19.4374 107.759 18.7901 107.759 18.0303C107.759 17.3174 107.876 16.6749 108.111 16.1027C108.347 15.5305 108.667 15.0427 109.071 14.6393C109.485 14.236 109.965 13.9264 110.511 13.7107C111.057 13.4949 111.64 13.3871 112.261 13.3871C112.826 13.3871 113.372 13.4715 113.899 13.6403C114.435 13.8092 114.91 14.0624 115.324 14.4001C115.748 14.7378 116.087 15.1693 116.341 15.6946C116.595 16.2105 116.722 16.8203 116.722 17.5238C116.722 18.2367 116.604 18.8839 116.369 19.4655C116.134 20.0377 115.809 20.5302 115.395 20.9429C114.99 21.3556 114.51 21.6746 113.955 21.8997C113.409 22.1248 112.817 22.2374 112.177 22.2374Z" fill="#333333"/>
    <path d="M128.25 22.1108C127.987 22.1108 127.733 22.1061 127.488 22.0967C127.281 22.0967 127.069 22.0967 126.853 22.0967C126.646 22.0873 126.481 22.0826 126.359 22.0826C126.237 22.0826 126.072 22.0873 125.865 22.0967C125.658 22.0967 125.451 22.0967 125.244 22.0967C124.999 22.1061 124.745 22.1108 124.482 22.1108V21.9982C124.764 21.9794 124.99 21.9466 125.159 21.8997C125.329 21.8528 125.46 21.7824 125.554 21.6886C125.649 21.5948 125.71 21.4729 125.738 21.3228C125.776 21.1727 125.794 20.9804 125.794 20.7459V15.0474L121.009 20.9288V21.0273C121.009 21.2056 121.023 21.3556 121.052 21.4776C121.089 21.5901 121.155 21.6839 121.249 21.759C121.343 21.8247 121.475 21.8762 121.644 21.9138C121.823 21.9513 122.049 21.9794 122.322 21.9982V22.1108C122.059 22.1108 121.804 22.1061 121.56 22.0967C121.353 22.0967 121.141 22.0967 120.925 22.0967C120.718 22.0873 120.553 22.0826 120.431 22.0826C120.308 22.0826 120.144 22.0873 119.937 22.0967C119.729 22.0967 119.522 22.0967 119.315 22.0967C119.071 22.1061 118.817 22.1108 118.553 22.1108V21.9982C118.836 21.9794 119.061 21.9466 119.231 21.8997C119.4 21.8528 119.527 21.7824 119.612 21.6886C119.706 21.5948 119.767 21.4729 119.795 21.3228C119.833 21.1727 119.852 20.9804 119.852 20.7459V14.8645C119.852 14.6299 119.833 14.4376 119.795 14.2876C119.767 14.1375 119.706 14.0155 119.612 13.9217C119.527 13.8279 119.4 13.7623 119.231 13.7247C119.061 13.6778 118.836 13.645 118.553 13.6262V13.4996C118.817 13.509 119.071 13.5137 119.315 13.5137C119.522 13.5231 119.729 13.5278 119.937 13.5278C120.144 13.5278 120.308 13.5278 120.431 13.5278C120.553 13.5278 120.718 13.5278 120.925 13.5278C121.141 13.5278 121.353 13.5231 121.56 13.5137C121.804 13.5137 122.059 13.509 122.322 13.4996V13.6262C122.049 13.645 121.823 13.6778 121.644 13.7247C121.475 13.7623 121.343 13.8279 121.249 13.9217C121.155 14.0155 121.089 14.1375 121.052 14.2876C121.023 14.4376 121.009 14.6299 121.009 14.8645V20.4926L125.794 14.6112V14.583C125.794 14.4048 125.776 14.2594 125.738 14.1469C125.71 14.0249 125.649 13.9311 125.554 13.8654C125.46 13.7904 125.329 13.7388 125.159 13.7107C124.99 13.6732 124.764 13.645 124.482 13.6262V13.4996C124.745 13.509 124.999 13.5137 125.244 13.5137C125.451 13.5231 125.658 13.5278 125.865 13.5278C126.072 13.5278 126.237 13.5278 126.359 13.5278C126.481 13.5278 126.646 13.5278 126.853 13.5278C127.069 13.5278 127.281 13.5231 127.488 13.5137C127.733 13.5137 127.987 13.509 128.25 13.4996V13.6262C127.978 13.645 127.756 13.6778 127.587 13.7247C127.418 13.7623 127.281 13.8279 127.178 13.9217C127.084 14.0155 127.018 14.1375 126.98 14.2876C126.952 14.4376 126.938 14.6299 126.938 14.8645V20.7459C126.938 20.9804 126.952 21.1727 126.98 21.3228C127.018 21.4729 127.084 21.5948 127.178 21.6886C127.281 21.7824 127.418 21.8528 127.587 21.8997C127.756 21.9466 127.978 21.9794 128.25 21.9982V22.1108ZM123.409 12.782C123.117 12.782 122.844 12.7492 122.59 12.6835C122.336 12.6085 122.115 12.51 121.927 12.388C121.739 12.2567 121.588 12.1019 121.475 11.9237C121.372 11.7455 121.32 11.5485 121.32 11.3328C121.32 11.1452 121.381 10.9904 121.503 10.8684C121.635 10.7371 121.795 10.6714 121.983 10.6714C122.2 10.6714 122.36 10.7418 122.463 10.8825C122.576 11.0232 122.633 11.1733 122.633 11.3328C122.633 11.4359 122.604 11.5438 122.548 11.6564C122.491 11.7596 122.397 11.8393 122.266 11.8956C122.322 12.1019 122.458 12.2614 122.675 12.374C122.901 12.4865 123.145 12.5428 123.409 12.5428C123.672 12.5428 123.912 12.4865 124.129 12.374C124.355 12.2614 124.496 12.1019 124.552 11.8956C124.42 11.8393 124.326 11.7596 124.27 11.6564C124.213 11.5438 124.185 11.4359 124.185 11.3328C124.185 11.1733 124.237 11.0232 124.34 10.8825C124.453 10.7418 124.618 10.6714 124.835 10.6714C125.023 10.6714 125.178 10.7371 125.3 10.8684C125.432 10.9904 125.498 11.1452 125.498 11.3328C125.498 11.5485 125.441 11.7455 125.329 11.9237C125.225 12.1019 125.079 12.2567 124.891 12.388C124.703 12.51 124.482 12.6085 124.228 12.6835C123.973 12.7492 123.701 12.782 123.409 12.782Z" fill="#333333"/>
    <path d="M49.091 35.3893C49.4298 35.8677 49.8062 36.4024 50.2202 36.9933C50.6437 37.5843 51.1142 38.2362 51.6318 38.9491C51.8576 39.2587 52.0882 39.5213 52.3234 39.7371C52.5681 39.9528 52.8598 40.0701 53.1986 40.0888V40.2014C52.9727 40.2014 52.761 40.1967 52.5634 40.1873C52.394 40.1873 52.2199 40.1873 52.0411 40.1873C51.8623 40.1779 51.7165 40.1732 51.6035 40.1732C51.4718 40.1732 51.3118 40.1779 51.1236 40.1873C50.9448 40.1873 50.766 40.1873 50.5872 40.1873C50.3802 40.1967 50.1638 40.2014 49.9379 40.2014V40.0888C50.4179 40.0794 50.6578 39.9716 50.6578 39.7652C50.6578 39.6526 50.4602 39.3243 50.065 38.7803C49.6792 38.2268 49.1051 37.4107 48.3429 36.332L46.7338 38.7521C46.4985 39.1086 46.3809 39.3994 46.3809 39.6245C46.3809 39.7652 46.4515 39.8778 46.5926 39.9622C46.7338 40.0372 46.9596 40.0794 47.2701 40.0888V40.2014C47.0725 40.2014 46.8843 40.1967 46.7055 40.1873C46.5456 40.1873 46.3809 40.1873 46.2115 40.1873C46.0421 40.1779 45.8963 40.1732 45.7739 40.1732C45.661 40.1732 45.5104 40.1779 45.3222 40.1873C45.1434 40.1873 44.9694 40.1873 44.8 40.1873C44.6024 40.1967 44.3953 40.2014 44.1789 40.2014V40.0888C44.5083 40.0325 44.8 39.9387 45.054 39.8074C45.3081 39.6761 45.534 39.526 45.7316 39.3572C45.9386 39.1883 46.1221 39.0054 46.2821 38.8084C46.442 38.602 46.5926 38.3957 46.7338 38.1893L48.1735 36.0647C47.863 35.6238 47.5289 35.1454 47.1713 34.6295C46.8138 34.1042 46.4232 33.532 45.9998 32.9129C45.7269 32.5189 45.4822 32.2281 45.2658 32.0405C45.0493 31.8435 44.7764 31.7356 44.4471 31.7169V31.5903C44.6635 31.5996 44.8658 31.6043 45.054 31.6043C45.214 31.6137 45.3787 31.6184 45.5481 31.6184C45.7269 31.6184 45.8774 31.6184 45.9998 31.6184C46.1221 31.6184 46.2774 31.6184 46.4656 31.6184C46.6538 31.6184 46.842 31.6137 47.0302 31.6043C47.2466 31.6043 47.4678 31.5996 47.6936 31.5903V31.7169C47.2137 31.7169 46.9737 31.8248 46.9737 32.0405C46.9737 32.1437 47.1243 32.4439 47.4254 32.941C47.7265 33.4288 48.2253 34.1652 48.9216 35.1501L50.2485 33.1521C50.3614 32.9738 50.4414 32.8285 50.4884 32.7159C50.5449 32.6033 50.5731 32.4532 50.5731 32.2656C50.5731 32.1343 50.5073 32.0124 50.3755 31.8998C50.2532 31.7779 49.9991 31.7169 49.6133 31.7169V31.5903C49.8485 31.5996 50.0791 31.6043 50.3049 31.6043C50.4931 31.6137 50.6861 31.6184 50.8837 31.6184C51.0813 31.6184 51.2413 31.6184 51.3636 31.6184C51.4765 31.6184 51.613 31.6184 51.7729 31.6184C51.9329 31.6184 52.0882 31.6137 52.2387 31.6043C52.4081 31.6043 52.5916 31.5996 52.7892 31.5903V31.7169C51.9423 31.7638 51.2554 32.1859 50.7284 32.9832L49.091 35.3893Z" fill="#333333"/>
    <path d="M57.9607 31.5903C58.3842 31.5903 58.7841 31.6418 59.1605 31.745C59.5464 31.8388 59.8804 31.9889 60.1627 32.1953C60.4544 32.3923 60.685 32.6502 60.8544 32.9692C61.0238 33.2881 61.1084 33.6633 61.1084 34.0948C61.1084 34.4513 61.0379 34.7796 60.8967 35.0797C60.765 35.3799 60.5815 35.6379 60.3462 35.8536C60.1204 36.06 59.8569 36.2241 59.5558 36.3461C59.2546 36.4586 58.9394 36.5149 58.61 36.5149C58.3183 36.5149 58.036 36.468 57.7631 36.3742V36.2476C57.8384 36.2663 57.9043 36.2804 57.9607 36.2898C58.0172 36.2898 58.0831 36.2898 58.1583 36.2898C58.4407 36.2898 58.6853 36.2429 58.8923 36.1491C59.0994 36.0459 59.2688 35.9099 59.4005 35.741C59.5416 35.5628 59.6452 35.3565 59.711 35.1219C59.7769 34.8874 59.8098 34.6295 59.8098 34.3481C59.8098 33.532 59.6216 32.9129 59.2452 32.4908C58.8782 32.0686 58.3418 31.8576 57.6361 31.8576C57.6079 31.8576 57.5467 31.8576 57.4526 31.8576C57.3679 31.8576 57.2738 31.8576 57.1703 31.8576C57.0668 31.8576 56.968 31.8623 56.8739 31.8717C56.7798 31.8717 56.7139 31.8717 56.6762 31.8717C56.6668 32.0968 56.6621 32.3219 56.6621 32.547C56.6621 32.7722 56.6621 32.9973 56.6621 33.2224V38.8366C56.6621 39.0711 56.6857 39.2634 56.7327 39.4134C56.7798 39.5635 56.8644 39.6855 56.9868 39.7793C57.1185 39.8731 57.2926 39.9434 57.509 39.9903C57.7349 40.0372 58.0219 40.0701 58.3701 40.0888V40.2014C58.0313 40.2014 57.7114 40.1967 57.4102 40.1873C57.1562 40.1873 56.9021 40.1873 56.648 40.1873C56.3939 40.1779 56.2057 40.1732 56.0834 40.1732C55.9611 40.1732 55.7964 40.1779 55.5894 40.1873C55.3823 40.1873 55.1753 40.1873 54.9683 40.1873C54.7236 40.1967 54.4695 40.2014 54.2061 40.2014V40.0888C54.4884 40.0701 54.7142 40.0372 54.8836 39.9903C55.053 39.9434 55.18 39.8731 55.2647 39.7793C55.3588 39.6855 55.42 39.5635 55.4482 39.4134C55.4858 39.2634 55.5047 39.0711 55.5047 38.8366V32.9551C55.5047 32.7206 55.4858 32.5283 55.4482 32.3782C55.42 32.2281 55.3588 32.1062 55.2647 32.0124C55.18 31.9186 55.053 31.8529 54.8836 31.8154C54.7142 31.7685 54.4884 31.7356 54.2061 31.7169V31.5903C54.4413 31.5996 54.6719 31.6043 54.8977 31.6043C55.0859 31.6137 55.2788 31.6184 55.4764 31.6184C55.6741 31.6184 55.834 31.6184 55.9564 31.6184C55.994 31.6184 56.0599 31.6184 56.154 31.6184C56.2481 31.609 56.3516 31.6043 56.4645 31.6043C56.5774 31.6043 56.6857 31.6043 56.7892 31.6043C56.9021 31.5949 56.9962 31.5903 57.0715 31.5903H57.9607Z" fill="#333333"/>
    <path d="M64.8496 40.314C64.5767 40.314 64.3838 40.2295 64.2708 40.0607C64.1579 39.8825 64.1014 39.6761 64.1014 39.4416C64.1014 39.2634 64.1297 39.0898 64.1861 38.921H64.2991C64.3649 38.9679 64.4543 39.0054 64.5672 39.0335C64.6802 39.0617 64.8449 39.0758 65.0613 39.0758C65.2213 39.0758 65.4001 38.996 65.5977 38.8366C65.7953 38.6771 65.9882 38.4332 66.1764 38.1049L63.4945 33.0254C63.2498 32.5658 63.0193 32.2422 62.8028 32.0546C62.5864 31.8576 62.337 31.7591 62.0547 31.7591V31.6325C62.2806 31.6418 62.497 31.6465 62.704 31.6465C62.8828 31.6559 63.0616 31.6606 63.2404 31.6606C63.4286 31.6606 63.5745 31.6606 63.678 31.6606C63.7533 31.6606 63.8756 31.6606 64.045 31.6606C64.2144 31.6606 64.379 31.6559 64.539 31.6465C64.7272 31.6465 64.9342 31.6418 65.1601 31.6325V31.7591C64.8778 31.7591 64.6708 31.7872 64.539 31.8435C64.4167 31.8998 64.3555 31.9936 64.3555 32.1249C64.3555 32.2469 64.4026 32.4204 64.4967 32.6455C64.6002 32.8707 64.7649 33.1943 64.9907 33.6164L66.7269 36.9089L68.1384 33.6586C68.2419 33.4241 68.336 33.2037 68.4207 32.9973C68.5148 32.7816 68.5619 32.5939 68.5619 32.4345C68.5619 32.2187 68.4678 32.0499 68.2796 31.9279C68.1008 31.7966 67.7997 31.7263 67.3762 31.7169V31.5903C67.5832 31.5996 67.7808 31.6043 67.969 31.6043C68.129 31.6137 68.2937 31.6184 68.4631 31.6184C68.6419 31.6184 68.7877 31.6184 68.9007 31.6184C69.023 31.6184 69.1641 31.6184 69.3241 31.6184C69.4841 31.6184 69.6394 31.6137 69.7899 31.6043C69.9593 31.6043 70.1334 31.5996 70.3122 31.5903V31.7169C70.0111 31.7919 69.724 31.9233 69.4511 32.1109C69.1877 32.2891 68.9524 32.6174 68.7454 33.0958L66.6704 38.0345C66.501 38.4473 66.3458 38.799 66.2046 39.0898C66.0729 39.3712 65.9411 39.6057 65.8094 39.7933C65.6777 39.9716 65.5365 40.1029 65.3859 40.1873C65.2354 40.2717 65.0566 40.314 64.8496 40.314Z" fill="#333333"/>
    <path d="M78.8367 39.9763C78.6862 39.9763 78.5027 39.995 78.2862 40.0325C78.0698 40.0701 77.8392 40.1123 77.5946 40.1592C77.3499 40.1967 77.1005 40.2342 76.8465 40.2717C76.5924 40.3093 76.3571 40.328 76.1407 40.328C75.4443 40.328 74.8045 40.2342 74.221 40.0466C73.6376 39.8496 73.1388 39.5682 72.7248 39.2024C72.3107 38.8366 71.9861 38.391 71.7508 37.8657C71.525 37.331 71.4121 36.726 71.4121 36.0506C71.4121 35.394 71.5297 34.7889 71.765 34.2355C72.0002 33.6727 72.3296 33.1896 72.753 32.7862C73.1859 32.3735 73.6988 32.0546 74.2916 31.8295C74.8844 31.5949 75.5432 31.4777 76.2677 31.4777C76.4842 31.4777 76.71 31.4964 76.9453 31.534C77.1899 31.5621 77.4252 31.5949 77.651 31.6325C77.8863 31.67 78.1027 31.7075 78.3003 31.745C78.5074 31.7732 78.6862 31.7872 78.8367 31.7872H78.9779C78.9685 31.9467 78.9638 32.1109 78.9638 32.2797C78.9638 32.4486 78.9638 32.6174 78.9638 32.7862C78.9638 32.9551 78.9638 33.1661 78.9638 33.4194C78.9638 33.6633 78.9685 33.865 78.9779 34.0244H78.8508C78.7567 33.7243 78.6485 33.4382 78.5262 33.1661C78.4039 32.8941 78.2439 32.6549 78.0463 32.4486C77.8581 32.2422 77.6134 32.078 77.3123 31.9561C77.0206 31.8341 76.6583 31.7732 76.2254 31.7732C75.7455 31.7732 75.2938 31.8576 74.8703 32.0264C74.4469 32.1859 74.0752 32.4345 73.7552 32.7722C73.4353 33.1099 73.1812 33.532 72.993 34.0385C72.8048 34.5451 72.7107 35.136 72.7107 35.8114C72.7107 36.5806 72.8142 37.2325 73.0212 37.7672C73.2377 38.3019 73.5058 38.7381 73.8258 39.0758C74.1552 39.4041 74.5174 39.6433 74.9127 39.7933C75.3079 39.9434 75.689 40.0185 76.056 40.0185C76.5359 40.0185 76.9312 39.9575 77.2417 39.8356C77.5616 39.7136 77.8251 39.5495 78.0322 39.3431C78.2486 39.1273 78.4227 38.8788 78.5544 38.5974C78.6956 38.3159 78.832 38.0158 78.9638 37.6968H79.0767C79.0296 38.0814 78.9873 38.4613 78.9497 38.8366C78.912 39.2118 78.8744 39.5917 78.8367 39.9763Z" fill="#333333"/>
    <path d="M88.2789 33.9119C88.1754 33.5742 88.0672 33.2787 87.9542 33.0254C87.8507 32.7628 87.7096 32.547 87.5308 32.3782C87.3614 32.2 87.1402 32.0686 86.8673 31.9842C86.5945 31.8904 86.2463 31.8435 85.8228 31.8435H85.23C85.2112 32.2187 85.197 32.6362 85.1876 33.0958C85.1876 33.5554 85.1876 33.9729 85.1876 34.3481V38.8366C85.1876 39.0711 85.2159 39.2634 85.2723 39.4134C85.3288 39.5635 85.4182 39.6855 85.5405 39.7793C85.6723 39.8731 85.8322 39.9434 86.0204 39.9903C86.218 40.0372 86.458 40.0701 86.7403 40.0888V40.2014C86.4298 40.2014 86.1381 40.1967 85.8652 40.1873C85.6299 40.1873 85.3947 40.1873 85.1594 40.1873C84.9241 40.1779 84.7453 40.1732 84.623 40.1732C84.5007 40.1732 84.3219 40.1779 84.0866 40.1873C83.8514 40.1873 83.6161 40.1873 83.3809 40.1873C83.0986 40.1967 82.8021 40.2014 82.4916 40.2014V40.0888C82.7739 40.0701 83.0092 40.0372 83.1974 39.9903C83.395 39.9434 83.555 39.8731 83.6773 39.7793C83.809 39.6855 83.9031 39.5635 83.9596 39.4134C84.0161 39.2634 84.0443 39.0711 84.0443 38.8366V34.3481C84.0443 33.9729 84.0396 33.5554 84.0302 33.0958C84.0302 32.6362 84.0208 32.2187 84.0019 31.8435H83.5079C83.0468 31.8435 82.6704 31.8904 82.3787 31.9842C82.0964 32.0686 81.8611 32.2 81.6729 32.3782C81.4941 32.547 81.3483 32.7628 81.2353 33.0254C81.1318 33.2787 81.033 33.5742 80.9389 33.9119H80.826C80.8354 33.7243 80.8401 33.4991 80.8401 33.2365C80.8495 32.9645 80.8542 32.7206 80.8542 32.5048C80.8542 32.336 80.8495 32.1671 80.8401 31.9983C80.8401 31.8295 80.8354 31.67 80.826 31.5199C80.9201 31.5293 81.0283 31.5387 81.1506 31.548C81.2824 31.5574 81.4141 31.5668 81.5459 31.5762C81.6776 31.5762 81.8 31.5809 81.9129 31.5903C82.0352 31.5903 82.1387 31.5903 82.2234 31.5903C82.7504 31.5903 83.1927 31.5949 83.5502 31.6043C83.9078 31.6043 84.2654 31.6043 84.623 31.6043H84.8771C85.197 31.6043 85.5123 31.6043 85.8228 31.6043C86.1334 31.5949 86.5239 31.5903 86.9944 31.5903C87.0791 31.5903 87.1779 31.5903 87.2908 31.5903C87.4131 31.5809 87.5402 31.5762 87.6719 31.5762C87.8037 31.5668 87.9307 31.5574 88.053 31.548C88.1848 31.5387 88.2977 31.5293 88.3918 31.5199C88.3824 31.67 88.3777 31.8295 88.3777 31.9983C88.3777 32.1671 88.3777 32.336 88.3777 32.5048C88.3777 32.7206 88.3777 32.9645 88.3777 33.2365C88.3777 33.4991 88.3824 33.7243 88.3918 33.9119H88.2789Z" fill="#333333"/>
    <path d="M92.9966 31.5199H93.4342L96.2431 38.9491C96.3372 39.193 96.4219 39.39 96.4972 39.5401C96.5725 39.6808 96.6572 39.7887 96.7513 39.8637C96.8454 39.9387 96.9489 39.995 97.0618 40.0325C97.1747 40.0607 97.3112 40.0794 97.4711 40.0888V40.2014C97.2547 40.2014 97.043 40.1967 96.836 40.1873C96.6572 40.1873 96.4737 40.1873 96.2855 40.1873C96.1067 40.1779 95.9655 40.1732 95.862 40.1732C95.7303 40.1732 95.5703 40.1779 95.3821 40.1873C95.1939 40.1873 95.0104 40.1873 94.8316 40.1873C94.6246 40.1967 94.4081 40.2014 94.1823 40.2014V40.0888C94.4552 40.0888 94.6951 40.0794 94.9022 40.0607C95.1186 40.0325 95.2268 39.9387 95.2268 39.7793C95.2268 39.7418 95.1939 39.6339 95.128 39.4557C95.0715 39.2774 94.9963 39.0617 94.9022 38.8084C94.8175 38.5458 94.7187 38.2644 94.6057 37.9642C94.4928 37.6546 94.3846 37.3498 94.2811 37.0496C94.2811 37.0496 94.2246 37.0496 94.1117 37.0496C93.9988 37.0402 93.8623 37.0355 93.7024 37.0355C93.5424 37.0262 93.373 37.0215 93.1942 37.0215C93.0248 37.0121 92.879 37.0074 92.7566 37.0074C92.5778 37.0074 92.3896 37.0121 92.192 37.0215C92.0038 37.0215 91.825 37.0215 91.6556 37.0215C91.458 37.0308 91.2651 37.0355 91.0769 37.0355C90.9169 37.4576 90.7805 37.8047 90.6676 38.0767C90.5641 38.3488 90.4794 38.5692 90.4135 38.7381C90.357 38.9069 90.31 39.0335 90.2723 39.118C90.2441 39.2024 90.2253 39.2634 90.2159 39.3009C90.1876 39.4416 90.1971 39.5635 90.2441 39.6667C90.2912 39.7605 90.3664 39.8402 90.47 39.9059C90.5735 39.9622 90.6958 40.0091 90.837 40.0466C90.9875 40.0748 91.1475 40.0888 91.3169 40.0888V40.2014C91.0722 40.2014 90.8417 40.1967 90.6252 40.1873C90.437 40.1873 90.2488 40.1873 90.0606 40.1873C89.8724 40.1779 89.7218 40.1732 89.6089 40.1732C89.4866 40.1732 89.3548 40.1779 89.2137 40.1873C89.0725 40.1873 88.9361 40.1873 88.8043 40.1873C88.6538 40.1967 88.5079 40.2014 88.3668 40.2014V40.0888C88.602 40.0701 88.8091 40.0138 88.9878 39.92C89.176 39.8262 89.3407 39.6995 89.4819 39.5401C89.6324 39.3806 89.7642 39.1883 89.8771 38.9632C89.9994 38.7381 90.1218 38.4801 90.2441 38.1893L92.9966 31.5199ZM91.204 36.7401C91.3922 36.7494 91.5757 36.7541 91.7544 36.7541C91.9144 36.7635 92.0791 36.7682 92.2485 36.7682C92.4273 36.7682 92.5967 36.7682 92.7566 36.7682C92.879 36.7682 93.0201 36.7682 93.1801 36.7682C93.3401 36.7682 93.4953 36.7635 93.6459 36.7541C93.8153 36.7447 93.9894 36.7354 94.1682 36.726L92.7566 32.8707L91.204 36.7401Z" fill="#333333"/>
    <path d="M100.371 38.7662C100.239 39.2915 100.084 39.6808 99.9049 39.9341C99.7356 40.1873 99.4721 40.314 99.1145 40.314C98.8604 40.314 98.6675 40.2342 98.5358 40.0748C98.4134 39.9153 98.3523 39.7277 98.3523 39.5119C98.3523 39.3337 98.3946 39.1649 98.4793 39.0054H98.5781C98.7475 39.0523 98.898 39.0758 99.0298 39.0758C99.265 39.0758 99.4721 39.0007 99.6509 38.8506C99.8391 38.6912 99.9849 38.4191 100.088 38.0345C100.164 37.7813 100.23 37.467 100.286 37.0918C100.352 36.7072 100.404 36.2945 100.441 35.8536C100.488 35.4034 100.521 34.9437 100.54 34.4747C100.568 33.9963 100.582 33.5367 100.582 33.0958C100.582 32.6174 100.488 32.275 100.3 32.0686C100.112 31.8623 99.7685 31.745 99.2697 31.7169V31.5903C99.4956 31.5996 99.7073 31.6043 99.9049 31.6043C100.074 31.6137 100.248 31.6184 100.427 31.6184C100.606 31.6184 100.752 31.6184 100.865 31.6184H104.789C104.911 31.6184 105.076 31.6184 105.283 31.6184C105.499 31.6184 105.711 31.6137 105.918 31.6043C106.163 31.6043 106.417 31.5996 106.68 31.5903V31.7169C106.407 31.7356 106.186 31.7685 106.017 31.8154C105.847 31.8529 105.711 31.9186 105.608 32.0124C105.513 32.1062 105.448 32.2281 105.41 32.3782C105.382 32.5283 105.368 32.7206 105.368 32.9551V38.8366C105.368 39.0711 105.382 39.2634 105.41 39.4134C105.448 39.5635 105.513 39.6855 105.608 39.7793C105.711 39.8731 105.847 39.9434 106.017 39.9903C106.186 40.0372 106.407 40.0701 106.68 40.0888V40.2014C106.417 40.2014 106.163 40.1967 105.918 40.1873C105.711 40.1873 105.499 40.1873 105.283 40.1873C105.076 40.1779 104.911 40.1732 104.789 40.1732C104.667 40.1732 104.502 40.1779 104.295 40.1873C104.088 40.1873 103.881 40.1873 103.674 40.1873C103.429 40.1967 103.175 40.2014 102.911 40.2014V40.0888C103.194 40.0701 103.42 40.0372 103.589 39.9903C103.758 39.9434 103.89 39.8731 103.984 39.7793C104.078 39.6855 104.14 39.5635 104.168 39.4134C104.205 39.2634 104.224 39.0711 104.224 38.8366V31.8998H103.561C103.373 31.8998 103.18 31.8998 102.982 31.8998C102.784 31.8904 102.615 31.8857 102.474 31.8857C102.352 31.8857 102.21 31.8857 102.05 31.8857C101.89 31.8857 101.731 31.8904 101.571 31.8998C101.42 31.8998 101.284 31.8998 101.161 31.8998C101.039 31.8998 100.949 31.8998 100.893 31.8998C100.893 32.547 100.879 33.2084 100.851 33.8837C100.822 34.5591 100.785 35.2064 100.738 35.8255C100.691 36.4352 100.634 36.998 100.568 37.5139C100.502 38.0205 100.437 38.4379 100.371 38.7662Z" fill="#333333"/>
    <path d="M112.088 40.2014C111.984 40.2014 111.853 40.2014 111.693 40.2014C111.533 40.192 111.363 40.1873 111.184 40.1873C111.006 40.1873 110.832 40.1873 110.662 40.1873C110.493 40.1779 110.352 40.1732 110.239 40.1732C110.116 40.1732 109.947 40.1779 109.731 40.1873C109.523 40.1873 109.312 40.1873 109.095 40.1873C108.851 40.1967 108.592 40.2014 108.319 40.2014V40.0888C108.601 40.0701 108.827 40.0372 108.997 39.9903C109.166 39.9434 109.293 39.8731 109.378 39.7793C109.472 39.6855 109.533 39.5635 109.561 39.4134C109.599 39.2634 109.618 39.0711 109.618 38.8366V32.9551C109.618 32.7206 109.599 32.5283 109.561 32.3782C109.533 32.2281 109.472 32.1062 109.378 32.0124C109.293 31.9186 109.166 31.8529 108.997 31.8154C108.827 31.7685 108.601 31.7356 108.319 31.7169V31.5903C108.582 31.5996 108.837 31.6043 109.081 31.6043C109.288 31.6137 109.495 31.6184 109.702 31.6184C109.909 31.6184 110.074 31.6184 110.196 31.6184C110.328 31.6184 110.512 31.6184 110.747 31.6184C110.982 31.6184 111.213 31.6137 111.438 31.6043C111.702 31.6043 111.984 31.5996 112.285 31.5903V31.7169C111.956 31.7356 111.693 31.7685 111.495 31.8154C111.297 31.8529 111.147 31.9186 111.043 32.0124C110.94 32.1062 110.869 32.2281 110.832 32.3782C110.794 32.5283 110.775 32.7206 110.775 32.9551V35.2626C110.879 35.2533 111.02 35.2439 111.199 35.2345C111.387 35.2251 111.575 35.2204 111.763 35.2204C112.347 35.2204 112.869 35.258 113.33 35.333C113.8 35.408 114.196 35.5394 114.516 35.727C114.845 35.9052 115.094 36.1491 115.264 36.4586C115.443 36.7682 115.532 37.1528 115.532 37.6124C115.532 38.0252 115.447 38.3957 115.278 38.724C115.118 39.0429 114.887 39.3149 114.586 39.5401C114.294 39.7558 113.932 39.92 113.499 40.0325C113.076 40.1451 112.605 40.2014 112.088 40.2014ZM112.158 39.9341C112.431 39.9341 112.69 39.9012 112.935 39.8356C113.189 39.7605 113.41 39.6386 113.598 39.4697C113.796 39.3009 113.951 39.0804 114.064 38.8084C114.177 38.5364 114.233 38.194 114.233 37.7813C114.233 37.059 114.036 36.4915 113.64 36.0787C113.245 35.666 112.619 35.4596 111.763 35.4596C111.566 35.4596 111.373 35.4643 111.184 35.4737C111.006 35.4831 110.869 35.4925 110.775 35.5018V38.3863C110.775 38.9116 110.864 39.3009 111.043 39.5541C111.222 39.8074 111.594 39.9341 112.158 39.9341Z" fill="#333333"/>
    <path d="M119.548 35.5722C119.83 35.5816 120.103 35.5863 120.367 35.5863C120.593 35.5957 120.828 35.6003 121.072 35.6003C121.327 35.6003 121.548 35.6003 121.736 35.6003C121.915 35.6003 122.136 35.6003 122.399 35.6003C122.663 35.6003 122.917 35.5957 123.162 35.5863C123.453 35.5863 123.75 35.5816 124.051 35.5722V32.9551C124.051 32.7206 124.032 32.5283 123.994 32.3782C123.966 32.2281 123.905 32.1062 123.811 32.0124C123.717 31.9186 123.585 31.8529 123.416 31.8154C123.246 31.7685 123.02 31.7356 122.738 31.7169V31.5903C123.002 31.5996 123.256 31.6043 123.5 31.6043C123.707 31.6137 123.914 31.6184 124.121 31.6184C124.328 31.6184 124.493 31.6184 124.615 31.6184C124.738 31.6184 124.902 31.6184 125.109 31.6184C125.326 31.6184 125.538 31.6137 125.745 31.6043C125.989 31.6043 126.243 31.5996 126.507 31.5903V31.7169C126.234 31.7356 126.013 31.7685 125.843 31.8154C125.674 31.8529 125.538 31.9186 125.434 32.0124C125.34 32.1062 125.274 32.2281 125.237 32.3782C125.208 32.5283 125.194 32.7206 125.194 32.9551V38.8366C125.194 39.0711 125.208 39.2634 125.237 39.4134C125.274 39.5635 125.34 39.6855 125.434 39.7793C125.538 39.8731 125.674 39.9434 125.843 39.9903C126.013 40.0372 126.234 40.0701 126.507 40.0888V40.2014C126.243 40.2014 125.989 40.1967 125.745 40.1873C125.538 40.1873 125.326 40.1873 125.109 40.1873C124.902 40.1779 124.738 40.1732 124.615 40.1732C124.493 40.1732 124.328 40.1779 124.121 40.1873C123.914 40.1873 123.707 40.1873 123.5 40.1873C123.256 40.1967 123.002 40.2014 122.738 40.2014V40.0888C123.02 40.0701 123.246 40.0372 123.416 39.9903C123.585 39.9434 123.717 39.8731 123.811 39.7793C123.905 39.6855 123.966 39.5635 123.994 39.4134C124.032 39.2634 124.051 39.0711 124.051 38.8366V35.8536H123.162C122.917 35.8536 122.663 35.8536 122.399 35.8536C122.136 35.8442 121.915 35.8395 121.736 35.8395C121.548 35.8395 121.327 35.8442 121.072 35.8536C120.828 35.8536 120.593 35.8536 120.367 35.8536H119.548V38.8366C119.548 39.0711 119.562 39.2634 119.59 39.4134C119.628 39.5635 119.694 39.6855 119.788 39.7793C119.882 39.8731 120.014 39.9434 120.183 39.9903C120.362 40.0372 120.588 40.0701 120.861 40.0888V40.2014C120.597 40.2014 120.343 40.1967 120.099 40.1873C119.892 40.1873 119.68 40.1873 119.463 40.1873C119.256 40.1779 119.092 40.1732 118.969 40.1732C118.847 40.1732 118.682 40.1779 118.475 40.1873C118.268 40.1873 118.061 40.1873 117.854 40.1873C117.61 40.1967 117.355 40.2014 117.092 40.2014V40.0888C117.374 40.0701 117.6 40.0372 117.77 39.9903C117.939 39.9434 118.066 39.8731 118.151 39.7793C118.245 39.6855 118.306 39.5635 118.334 39.4134C118.372 39.2634 118.391 39.0711 118.391 38.8366V32.9551C118.391 32.7206 118.372 32.5283 118.334 32.3782C118.306 32.2281 118.245 32.1062 118.151 32.0124C118.066 31.9186 117.939 31.8529 117.77 31.8154C117.6 31.7685 117.374 31.7356 117.092 31.7169V31.5903C117.355 31.5996 117.61 31.6043 117.854 31.6043C118.061 31.6137 118.268 31.6184 118.475 31.6184C118.682 31.6184 118.847 31.6184 118.969 31.6184C119.092 31.6184 119.256 31.6184 119.463 31.6184C119.68 31.6184 119.892 31.6137 120.099 31.6043C120.343 31.6043 120.597 31.5996 120.861 31.5903V31.7169C120.588 31.7356 120.362 31.7685 120.183 31.8154C120.014 31.8529 119.882 31.9186 119.788 32.0124C119.694 32.1062 119.628 32.2281 119.59 32.3782C119.562 32.5283 119.548 32.7206 119.548 32.9551V35.5722Z" fill="#333333"/>
    <path d="M136.581 32.9551C136.581 32.7206 136.562 32.5283 136.524 32.3782C136.496 32.2281 136.435 32.1062 136.341 32.0124C136.247 31.9186 136.11 31.8529 135.931 31.8154C135.762 31.7685 135.541 31.7356 135.268 31.7169V31.5903C135.531 31.5996 135.786 31.6043 136.03 31.6043C136.237 31.6137 136.444 31.6184 136.651 31.6184C136.868 31.6184 137.037 31.6184 137.159 31.6184C137.282 31.6184 137.446 31.6184 137.653 31.6184C137.86 31.6184 138.068 31.6137 138.275 31.6043C138.519 31.6043 138.773 31.5996 139.037 31.5903V31.7169C138.754 31.7356 138.529 31.7685 138.359 31.8154C138.19 31.8529 138.058 31.9186 137.964 32.0124C137.879 32.1062 137.818 32.2281 137.781 32.3782C137.752 32.5283 137.738 32.7206 137.738 32.9551V38.8366C137.738 39.0711 137.752 39.2634 137.781 39.4134C137.818 39.5635 137.879 39.6855 137.964 39.7793C138.058 39.8731 138.19 39.9434 138.359 39.9903C138.529 40.0372 138.754 40.0701 139.037 40.0888V40.2014C138.773 40.2014 138.519 40.1967 138.275 40.1873C138.068 40.1873 137.86 40.1873 137.653 40.1873C137.446 40.1779 137.282 40.1732 137.159 40.1732C137.047 40.1732 136.891 40.1779 136.694 40.1873C136.496 40.1873 136.303 40.1873 136.115 40.1873C135.889 40.1967 135.654 40.2014 135.409 40.2014V40.0888C135.654 40.0794 135.851 40.0513 136.002 40.0044C136.162 39.9575 136.284 39.8871 136.369 39.7933C136.454 39.6995 136.51 39.5776 136.538 39.4275C136.567 39.268 136.581 39.0711 136.581 38.8366V32.9551ZM131.824 40.2014C131.72 40.2014 131.589 40.2014 131.429 40.2014C131.278 40.192 131.118 40.1873 130.949 40.1873C130.789 40.1873 130.624 40.1873 130.455 40.1873C130.295 40.1779 130.158 40.1732 130.045 40.1732C129.923 40.1732 129.754 40.1779 129.537 40.1873C129.33 40.1873 129.118 40.1873 128.902 40.1873C128.657 40.1967 128.399 40.2014 128.126 40.2014V40.0888C128.408 40.0701 128.634 40.0372 128.803 39.9903C128.973 39.9434 129.1 39.8731 129.184 39.7793C129.278 39.6855 129.34 39.5635 129.368 39.4134C129.405 39.2634 129.424 39.0711 129.424 38.8366V32.9551C129.424 32.7206 129.405 32.5283 129.368 32.3782C129.34 32.2281 129.278 32.1062 129.184 32.0124C129.1 31.9186 128.973 31.8529 128.803 31.8154C128.634 31.7685 128.408 31.7356 128.126 31.7169V31.5903C128.389 31.5996 128.643 31.6043 128.888 31.6043C129.095 31.6137 129.302 31.6184 129.509 31.6184C129.716 31.6184 129.881 31.6184 130.003 31.6184C130.135 31.6184 130.318 31.6184 130.553 31.6184C130.789 31.6184 131.019 31.6137 131.245 31.6043C131.509 31.6043 131.791 31.5996 132.092 31.5903V31.7169C131.763 31.7356 131.499 31.7685 131.302 31.8154C131.104 31.8529 130.953 31.9186 130.85 32.0124C130.746 32.1062 130.676 32.2281 130.638 32.3782C130.601 32.5283 130.582 32.7206 130.582 32.9551V35.2626C130.676 35.2533 130.808 35.2439 130.977 35.2345C131.146 35.2251 131.32 35.2204 131.499 35.2204C132.083 35.2204 132.605 35.258 133.066 35.333C133.537 35.408 133.932 35.5394 134.252 35.727C134.581 35.9052 134.83 36.1491 135 36.4586C135.179 36.7682 135.268 37.1528 135.268 37.6124C135.268 38.0252 135.183 38.3957 135.014 38.724C134.854 39.0429 134.623 39.3149 134.322 39.5401C134.031 39.7558 133.668 39.92 133.235 40.0325C132.812 40.1451 132.341 40.2014 131.824 40.2014ZM131.894 39.9341C132.167 39.9341 132.426 39.9012 132.671 39.8356C132.925 39.7605 133.146 39.6386 133.334 39.4697C133.532 39.3009 133.687 39.0804 133.8 38.8084C133.913 38.5364 133.969 38.194 133.969 37.7813C133.969 37.059 133.772 36.4915 133.377 36.0787C132.981 35.666 132.356 35.4596 131.499 35.4596C131.311 35.4596 131.132 35.4643 130.963 35.4737C130.793 35.4831 130.666 35.4878 130.582 35.4878V38.3863C130.582 38.6489 130.596 38.8788 130.624 39.0758C130.662 39.2727 130.723 39.4369 130.808 39.5682C130.902 39.6902 131.033 39.784 131.203 39.8496C131.382 39.9059 131.612 39.9341 131.894 39.9341Z" fill="#333333"/>
    <path d="M150.373 40.2014C150.109 40.2014 149.855 40.1967 149.611 40.1873C149.404 40.1873 149.192 40.1873 148.975 40.1873C148.768 40.1779 148.604 40.1732 148.481 40.1732C148.359 40.1732 148.194 40.1779 147.987 40.1873C147.78 40.1873 147.573 40.1873 147.366 40.1873C147.122 40.1967 146.868 40.2014 146.604 40.2014V40.0888C146.886 40.0701 147.112 40.0372 147.282 39.9903C147.451 39.9434 147.583 39.8731 147.677 39.7793C147.771 39.6855 147.832 39.5635 147.86 39.4134C147.898 39.2634 147.917 39.0711 147.917 38.8366V33.138L143.132 39.0195V39.118C143.132 39.2962 143.146 39.4463 143.174 39.5682C143.212 39.6808 143.278 39.7746 143.372 39.8496C143.466 39.9153 143.597 39.9669 143.767 40.0044C143.946 40.0419 144.171 40.0701 144.444 40.0888V40.2014C144.181 40.2014 143.927 40.1967 143.682 40.1873C143.475 40.1873 143.263 40.1873 143.047 40.1873C142.84 40.1779 142.675 40.1732 142.553 40.1732C142.431 40.1732 142.266 40.1779 142.059 40.1873C141.852 40.1873 141.645 40.1873 141.438 40.1873C141.193 40.1967 140.939 40.2014 140.676 40.2014V40.0888C140.958 40.0701 141.184 40.0372 141.353 39.9903C141.523 39.9434 141.65 39.8731 141.734 39.7793C141.828 39.6855 141.89 39.5635 141.918 39.4134C141.955 39.2634 141.974 39.0711 141.974 38.8366V32.9551C141.974 32.7206 141.955 32.5283 141.918 32.3782C141.89 32.2281 141.828 32.1062 141.734 32.0124C141.65 31.9186 141.523 31.8529 141.353 31.8154C141.184 31.7685 140.958 31.7356 140.676 31.7169V31.5903C140.939 31.5996 141.193 31.6043 141.438 31.6043C141.645 31.6137 141.852 31.6184 142.059 31.6184C142.266 31.6184 142.431 31.6184 142.553 31.6184C142.675 31.6184 142.84 31.6184 143.047 31.6184C143.263 31.6184 143.475 31.6137 143.682 31.6043C143.927 31.6043 144.181 31.5996 144.444 31.5903V31.7169C144.171 31.7356 143.946 31.7685 143.767 31.8154C143.597 31.8529 143.466 31.9186 143.372 32.0124C143.278 32.1062 143.212 32.2281 143.174 32.3782C143.146 32.5283 143.132 32.7206 143.132 32.9551V38.5833L147.917 32.7018V32.6737C147.917 32.4955 147.898 32.3501 147.86 32.2375C147.832 32.1156 147.771 32.0217 147.677 31.9561C147.583 31.881 147.451 31.8295 147.282 31.8013C147.112 31.7638 146.886 31.7356 146.604 31.7169V31.5903C146.868 31.5996 147.122 31.6043 147.366 31.6043C147.573 31.6137 147.78 31.6184 147.987 31.6184C148.194 31.6184 148.359 31.6184 148.481 31.6184C148.604 31.6184 148.768 31.6184 148.975 31.6184C149.192 31.6184 149.404 31.6137 149.611 31.6043C149.855 31.6043 150.109 31.5996 150.373 31.5903V31.7169C150.1 31.7356 149.879 31.7685 149.709 31.8154C149.54 31.8529 149.404 31.9186 149.3 32.0124C149.206 32.1062 149.14 32.2281 149.102 32.3782C149.074 32.5283 149.06 32.7206 149.06 32.9551V38.8366C149.06 39.0711 149.074 39.2634 149.102 39.4134C149.14 39.5635 149.206 39.6855 149.3 39.7793C149.404 39.8731 149.54 39.9434 149.709 39.9903C149.879 40.0372 150.1 40.0701 150.373 40.0888V40.2014ZM145.531 30.8727C145.24 30.8727 144.967 30.8398 144.713 30.7742C144.458 30.6991 144.237 30.6006 144.049 30.4787C143.861 30.3474 143.71 30.1926 143.597 30.0144C143.494 29.8361 143.442 29.6391 143.442 29.4234C143.442 29.2358 143.503 29.081 143.626 28.9591C143.757 28.8277 143.917 28.7621 144.106 28.7621C144.322 28.7621 144.482 28.8324 144.586 28.9731C144.698 29.1138 144.755 29.2639 144.755 29.4234C144.755 29.5266 144.727 29.6345 144.67 29.747C144.614 29.8502 144.52 29.9299 144.388 29.9862C144.444 30.1926 144.581 30.352 144.797 30.4646C145.023 30.5772 145.268 30.6335 145.531 30.6335C145.795 30.6335 146.035 30.5772 146.251 30.4646C146.477 30.352 146.618 30.1926 146.675 29.9862C146.543 29.9299 146.449 29.8502 146.392 29.747C146.336 29.6345 146.308 29.5266 146.308 29.4234C146.308 29.2639 146.359 29.1138 146.463 28.9731C146.576 28.8324 146.74 28.7621 146.957 28.7621C147.145 28.7621 147.3 28.8277 147.423 28.9591C147.554 29.081 147.62 29.2358 147.62 29.4234C147.62 29.6391 147.564 29.8361 147.451 30.0144C147.347 30.1926 147.202 30.3474 147.013 30.4787C146.825 30.6006 146.604 30.6991 146.35 30.7742C146.096 30.8398 145.823 30.8727 145.531 30.8727Z" fill="#333333"/>
    <path d="M155.065 39.9763C155.027 39.5917 154.99 39.2118 154.952 38.8366C154.914 38.4613 154.872 38.0814 154.825 37.6968H154.938C155.069 38.0064 155.201 38.3019 155.333 38.5833C155.465 38.8647 155.629 39.1133 155.827 39.329C156.025 39.5354 156.269 39.7042 156.561 39.8356C156.853 39.9575 157.229 40.0185 157.69 40.0185C158.349 40.0185 158.876 39.8543 159.271 39.526C159.676 39.1977 159.878 38.6396 159.878 37.8516C159.878 37.2794 159.68 36.8057 159.285 36.4305C158.899 36.0459 158.325 35.8536 157.563 35.8536C157.384 35.8536 157.229 35.8583 157.097 35.8677C156.966 35.8677 156.848 35.8677 156.745 35.8677C156.632 35.8771 156.533 35.8818 156.448 35.8818V35.5863C156.542 35.5957 156.641 35.6003 156.745 35.6003C156.839 35.6097 156.952 35.6144 157.083 35.6144C157.215 35.6144 157.361 35.6144 157.521 35.6144C157.766 35.6144 158.001 35.5769 158.227 35.5019C158.452 35.4174 158.65 35.3002 158.819 35.1501C158.998 34.9906 159.139 34.7936 159.243 34.5591C159.346 34.3152 159.398 34.0385 159.398 33.729C159.398 33.0536 159.243 32.5611 158.932 32.2516C158.622 31.942 158.194 31.7872 157.648 31.7872C157.271 31.7872 156.947 31.8482 156.674 31.9702C156.41 32.0921 156.18 32.2563 155.982 32.4626C155.794 32.669 155.634 32.9082 155.502 33.1802C155.371 33.4522 155.258 33.7337 155.164 34.0244H155.037C155.046 33.865 155.051 33.6914 155.051 33.5038C155.051 33.3069 155.051 33.1099 155.051 32.9129C155.051 32.7159 155.051 32.5189 155.051 32.3219C155.051 32.1249 155.046 31.9467 155.037 31.7872H155.178C155.328 31.7872 155.512 31.7732 155.728 31.745C155.945 31.7075 156.17 31.67 156.406 31.6325C156.65 31.5949 156.9 31.5621 157.154 31.534C157.408 31.4965 157.648 31.4777 157.874 31.4777C158.25 31.4777 158.608 31.5199 158.947 31.6043C159.285 31.6794 159.582 31.8013 159.836 31.9702C160.09 32.139 160.287 32.3548 160.429 32.6174C160.579 32.8707 160.654 33.1802 160.654 33.5461C160.654 33.865 160.584 34.1464 160.443 34.3903C160.302 34.6248 160.132 34.8265 159.935 34.9953C159.737 35.1548 159.535 35.2861 159.328 35.3893C159.121 35.4831 158.951 35.5488 158.819 35.5863C158.97 35.605 159.177 35.6519 159.441 35.727C159.713 35.802 159.977 35.924 160.231 36.0928C160.485 36.2523 160.706 36.468 160.894 36.7401C161.083 37.0121 161.177 37.3498 161.177 37.7531C161.177 38.1659 161.092 38.5317 160.923 38.8506C160.753 39.1696 160.509 39.4416 160.189 39.6667C159.878 39.8825 159.502 40.0466 159.059 40.1592C158.627 40.2717 158.142 40.328 157.606 40.328C157.427 40.328 157.234 40.314 157.027 40.2858C156.829 40.2577 156.627 40.2248 156.42 40.1873C156.222 40.1498 156.029 40.1123 155.841 40.0748C155.653 40.0372 155.484 40.0091 155.333 39.9903C155.286 39.981 155.239 39.9763 155.192 39.9763C155.145 39.9763 155.102 39.9763 155.065 39.9763Z" fill="#333333"/>
    <path d="M166.493 31.5199H166.93L169.739 38.9491C169.834 39.193 169.918 39.39 169.993 39.5401C170.069 39.6808 170.153 39.7887 170.248 39.8637C170.342 39.9387 170.445 39.995 170.558 40.0325C170.671 40.0607 170.807 40.0794 170.967 40.0888V40.2014C170.751 40.2014 170.539 40.1967 170.332 40.1873C170.153 40.1873 169.97 40.1873 169.782 40.1873C169.603 40.1779 169.462 40.1733 169.358 40.1733C169.227 40.1733 169.067 40.1779 168.878 40.1873C168.69 40.1873 168.507 40.1873 168.328 40.1873C168.121 40.1967 167.904 40.2014 167.679 40.2014V40.0888C167.951 40.0888 168.191 40.0794 168.398 40.0607C168.615 40.0325 168.723 39.9387 168.723 39.7793C168.723 39.7418 168.69 39.6339 168.624 39.4557C168.568 39.2774 168.493 39.0617 168.398 38.8084C168.314 38.5458 168.215 38.2644 168.102 37.9642C167.989 37.6546 167.881 37.3498 167.777 37.0496C167.777 37.0496 167.721 37.0496 167.608 37.0496C167.495 37.0402 167.359 37.0355 167.199 37.0355C167.039 37.0262 166.869 37.0215 166.691 37.0215C166.521 37.0121 166.375 37.0074 166.253 37.0074C166.074 37.0074 165.886 37.0121 165.688 37.0215C165.5 37.0215 165.321 37.0215 165.152 37.0215C164.954 37.0308 164.761 37.0355 164.573 37.0355C164.413 37.4576 164.277 37.8047 164.164 38.0768C164.06 38.3488 163.976 38.5692 163.91 38.7381C163.853 38.9069 163.806 39.0335 163.769 39.118C163.74 39.2024 163.722 39.2634 163.712 39.3009C163.684 39.4416 163.693 39.5635 163.74 39.6667C163.787 39.7605 163.863 39.8403 163.966 39.9059C164.07 39.9622 164.192 40.0091 164.333 40.0466C164.484 40.0748 164.644 40.0888 164.813 40.0888V40.2014C164.569 40.2014 164.338 40.1967 164.122 40.1873C163.933 40.1873 163.745 40.1873 163.557 40.1873C163.369 40.1779 163.218 40.1733 163.105 40.1733C162.983 40.1733 162.851 40.1779 162.71 40.1873C162.569 40.1873 162.432 40.1873 162.301 40.1873C162.15 40.1967 162.004 40.2014 161.863 40.2014V40.0888C162.098 40.0701 162.305 40.0138 162.484 39.92C162.672 39.8262 162.837 39.6995 162.978 39.5401C163.129 39.3806 163.26 39.1883 163.373 38.9632C163.496 38.7381 163.618 38.4801 163.74 38.1893L166.493 31.5199ZM164.7 36.7401C164.888 36.7494 165.072 36.7541 165.251 36.7541C165.411 36.7635 165.575 36.7682 165.745 36.7682C165.924 36.7682 166.093 36.7682 166.253 36.7682C166.375 36.7682 166.516 36.7682 166.676 36.7682C166.836 36.7682 166.992 36.7635 167.142 36.7541C167.312 36.7447 167.486 36.7354 167.664 36.726L166.253 32.8707L164.7 36.7401Z" fill="#333333"/>
    <path d="M174.011 40.1733C173.889 40.1733 173.719 40.1779 173.503 40.1873C173.296 40.1873 173.084 40.1873 172.868 40.1873C172.623 40.1967 172.364 40.2014 172.091 40.2014V40.0888C172.373 40.0701 172.599 40.0372 172.769 39.9903C172.938 39.9434 173.065 39.8731 173.15 39.7793C173.244 39.6855 173.305 39.5635 173.333 39.4134C173.371 39.2634 173.39 39.0711 173.39 38.8366V32.9551C173.39 32.7206 173.371 32.5283 173.333 32.3782C173.305 32.2281 173.244 32.1062 173.15 32.0124C173.065 31.9186 172.938 31.8529 172.769 31.8154C172.599 31.7685 172.373 31.7357 172.091 31.7169V31.5903C172.355 31.5996 172.609 31.6043 172.853 31.6043C173.06 31.6137 173.267 31.6184 173.474 31.6184C173.681 31.6184 173.846 31.6184 173.969 31.6184C174.298 31.609 174.623 31.6043 174.942 31.6043C175.272 31.5949 175.601 31.5903 175.931 31.5903C176.316 31.5903 176.679 31.6278 177.017 31.7028C177.366 31.7779 177.667 31.8951 177.921 32.0546C178.175 32.214 178.377 32.4204 178.528 32.6737C178.678 32.9176 178.754 33.2084 178.754 33.5461C178.754 33.8556 178.683 34.1323 178.542 34.3762C178.41 34.6107 178.25 34.8124 178.062 34.9812C177.883 35.1407 177.7 35.2673 177.511 35.3611C177.323 35.4549 177.173 35.5206 177.06 35.5581C177.201 35.5769 177.408 35.6238 177.681 35.6988C177.954 35.7739 178.222 35.8958 178.485 36.0647C178.749 36.2335 178.979 36.454 179.177 36.726C179.375 36.998 179.473 37.3404 179.473 37.7531C179.473 38.1471 179.389 38.4942 179.219 38.7943C179.05 39.0945 178.81 39.3525 178.5 39.5682C178.198 39.7746 177.831 39.9341 177.399 40.0466C176.966 40.1498 176.481 40.2014 175.945 40.2014C175.841 40.2014 175.705 40.2014 175.535 40.2014C175.366 40.192 175.187 40.1873 174.999 40.1873C174.82 40.1873 174.641 40.1873 174.463 40.1873C174.284 40.1779 174.133 40.1733 174.011 40.1733ZM174.547 38.3863C174.547 38.649 174.566 38.8788 174.604 39.0758C174.651 39.2727 174.726 39.4369 174.83 39.5682C174.942 39.6902 175.093 39.784 175.281 39.8496C175.469 39.9059 175.714 39.9341 176.015 39.9341C176.298 39.9341 176.566 39.9012 176.82 39.8356C177.083 39.7699 177.314 39.6573 177.511 39.4979C177.718 39.3384 177.878 39.132 177.991 38.8788C178.114 38.6255 178.175 38.3066 178.175 37.922C178.175 37.6687 178.123 37.4201 178.02 37.1762C177.925 36.923 177.775 36.6978 177.568 36.5009C177.361 36.3039 177.097 36.1491 176.777 36.0365C176.467 35.9146 176.095 35.8536 175.662 35.8536H175.154C175.06 35.8536 174.942 35.8583 174.801 35.8677C174.66 35.8677 174.575 35.8724 174.547 35.8818V38.3863ZM175.62 35.6144C175.865 35.6144 176.1 35.5769 176.326 35.5019C176.552 35.4174 176.749 35.3002 176.919 35.1501C177.097 35 177.239 34.8124 177.342 34.5873C177.446 34.3621 177.497 34.0995 177.497 33.7993C177.497 33.1146 177.323 32.6221 176.975 32.3219C176.627 32.0124 176.156 31.8576 175.564 31.8576C175.394 31.8576 175.244 31.8623 175.112 31.8717C174.99 31.881 174.886 31.8904 174.801 31.8998C174.698 31.9092 174.618 31.9186 174.561 31.9279V32.744L174.547 35.5863C174.575 35.5957 174.66 35.605 174.801 35.6144C174.952 35.6144 175.074 35.6144 175.168 35.6144H175.62Z" fill="#333333"/>
    <path d="M186.021 40.0185C186.426 40.0185 186.812 39.9387 187.179 39.7793C187.555 39.6104 187.88 39.3572 188.153 39.0195C188.435 38.6724 188.656 38.2409 188.816 37.725C188.986 37.1997 189.07 36.5853 189.07 35.8818C189.07 35.2251 188.981 34.6436 188.802 34.137C188.633 33.6305 188.398 33.2037 188.096 32.8566C187.805 32.5001 187.461 32.2328 187.066 32.0546C186.671 31.867 186.247 31.7732 185.796 31.7732C185.4 31.7732 185.019 31.8529 184.652 32.0124C184.285 32.1718 183.956 32.4204 183.664 32.7581C183.382 33.0864 183.156 33.5085 182.987 34.0244C182.817 34.5404 182.733 35.1501 182.733 35.8536C182.733 36.5102 182.817 37.0965 182.987 37.6124C183.156 38.1283 183.387 38.5645 183.678 38.921C183.97 39.2774 184.313 39.5495 184.709 39.7371C185.113 39.9247 185.551 40.0185 186.021 40.0185ZM185.852 40.328C185.344 40.328 184.826 40.253 184.299 40.1029C183.782 39.9434 183.311 39.6995 182.888 39.3712C182.464 39.0335 182.116 38.5974 181.843 38.0627C181.57 37.528 181.434 36.8808 181.434 36.121C181.434 35.408 181.552 34.7655 181.787 34.1933C182.022 33.6211 182.342 33.1333 182.747 32.73C183.161 32.3266 183.641 32.0171 184.186 31.8013C184.732 31.5856 185.316 31.4777 185.937 31.4777C186.501 31.4777 187.047 31.5621 187.574 31.731C188.111 31.8998 188.586 32.1531 189 32.4908C189.423 32.8285 189.762 33.26 190.016 33.7853C190.27 34.3012 190.397 34.9109 190.397 35.6144C190.397 36.3273 190.28 36.9746 190.044 37.5561C189.809 38.1283 189.484 38.6208 189.07 39.0335C188.666 39.4463 188.186 39.7652 187.631 39.9903C187.085 40.2155 186.492 40.328 185.852 40.328Z" fill="#333333"/>
    <path d="M191.7 42.3542C191.71 42.1384 191.714 41.8852 191.714 41.5944C191.724 41.3036 191.728 41.0222 191.728 40.7501C191.728 40.5907 191.724 40.4265 191.714 40.2577C191.714 40.0888 191.71 39.9341 191.7 39.7933L192.293 39.8496C192.585 39.7464 192.825 39.5026 193.013 39.118C193.211 38.7334 193.366 38.2456 193.479 37.6546C193.601 37.0543 193.69 36.3695 193.747 35.6003C193.803 34.8312 193.841 34.0104 193.86 33.138C193.869 32.9035 193.86 32.7018 193.832 32.533C193.803 32.3548 193.742 32.2094 193.648 32.0968C193.563 31.9748 193.436 31.8857 193.267 31.8295C193.098 31.7732 192.872 31.7357 192.589 31.7169V31.5903C192.825 31.5996 193.046 31.6043 193.253 31.6043C193.432 31.6137 193.606 31.6184 193.775 31.6184C193.954 31.6184 194.09 31.6184 194.184 31.6184H198.109C198.231 31.6184 198.396 31.6184 198.603 31.6184C198.819 31.6184 199.031 31.6137 199.238 31.6043C199.482 31.6043 199.737 31.5996 200 31.5903V31.7169C199.727 31.7357 199.506 31.7685 199.337 31.8154C199.167 31.8529 199.031 31.9186 198.927 32.0124C198.833 32.1062 198.767 32.2281 198.73 32.3782C198.701 32.5283 198.687 32.7206 198.687 32.9551V39.8637C198.885 39.8543 199.083 39.8449 199.28 39.8356C199.487 39.8262 199.685 39.8121 199.873 39.7933C199.864 39.9341 199.854 40.0888 199.845 40.2577C199.845 40.4265 199.845 40.5907 199.845 40.7501C199.845 41.0222 199.845 41.3036 199.845 41.5944C199.854 41.8852 199.864 42.1384 199.873 42.3542H199.76C199.713 41.9414 199.647 41.5944 199.562 41.313C199.478 41.0409 199.351 40.8205 199.181 40.6516C199.012 40.4828 198.795 40.3609 198.532 40.2858C198.269 40.2108 197.939 40.1733 197.544 40.1733H194.029C193.634 40.1733 193.305 40.2108 193.041 40.2858C192.778 40.3609 192.561 40.4828 192.392 40.6516C192.222 40.8205 192.091 41.0409 191.997 41.313C191.912 41.5944 191.851 41.9414 191.813 42.3542H191.7ZM197.544 31.8998H196.881C196.692 31.8998 196.499 31.8998 196.302 31.8998C196.104 31.8904 195.935 31.8857 195.794 31.8857C195.671 31.8857 195.53 31.8857 195.37 31.8857C195.21 31.8857 195.05 31.8904 194.89 31.8998C194.74 31.8998 194.603 31.8998 194.481 31.8998C194.359 31.8998 194.269 31.8998 194.213 31.8998C194.184 32.9598 194.142 33.9353 194.086 34.8265C194.039 35.7082 193.963 36.4868 193.86 37.1622C193.766 37.8376 193.634 38.4051 193.465 38.8647C193.305 39.3243 193.093 39.6573 192.829 39.8637C193.065 39.8825 193.286 39.8918 193.493 39.8918C193.709 39.8918 193.888 39.8918 194.029 39.8918H197.544V31.8998Z" fill="#333333"/>
</svg>
